<mxfile host="app.diagrams.net" agent="Mozilla/5.0 (Windows NT 10.0; Win64; x64) AppleWebKit/537.36 (KHTML, like Gecko) Chrome/134.0.0.0 Safari/537.36" version="26.1.3">
  <diagram id="Y7yD98AthpfiC9329NPk" name="Page-1">
    <mxGraphModel dx="1050" dy="1630" grid="1" gridSize="10" guides="1" tooltips="1" connect="1" arrows="1" fold="1" page="1" pageScale="1" pageWidth="850" pageHeight="1100" math="0" shadow="0">
      <root>
        <mxCell id="0" />
        <mxCell id="1" parent="0" />
        <mxCell id="mR_fFIOw4y9DoTcKAN-y-1" value="&lt;i&gt;Figure&lt;/i&gt;&lt;div&gt;&lt;br&gt;&lt;/div&gt;" style="swimlane;fontStyle=1;align=center;verticalAlign=top;childLayout=stackLayout;horizontal=1;startSize=26;horizontalStack=0;resizeParent=1;resizeParentMax=0;resizeLast=0;collapsible=1;marginBottom=0;whiteSpace=wrap;html=1;" parent="1" vertex="1">
          <mxGeometry x="380" y="-320" width="160" height="58" as="geometry" />
        </mxCell>
        <mxCell id="mR_fFIOw4y9DoTcKAN-y-2" value="- ontoRobot: OntoRobot&lt;div&gt;&lt;div&gt;&lt;br&gt;&lt;/div&gt;&lt;/div&gt;" style="text;strokeColor=none;fillColor=none;align=left;verticalAlign=top;spacingLeft=4;spacingRight=4;overflow=hidden;rotatable=0;points=[[0,0.5],[1,0.5]];portConstraint=eastwest;whiteSpace=wrap;html=1;" parent="mR_fFIOw4y9DoTcKAN-y-1" vertex="1">
          <mxGeometry y="26" width="160" height="24" as="geometry" />
        </mxCell>
        <mxCell id="mR_fFIOw4y9DoTcKAN-y-3" value="" style="line;strokeWidth=1;fillColor=none;align=left;verticalAlign=middle;spacingTop=-1;spacingLeft=3;spacingRight=3;rotatable=0;labelPosition=right;points=[];portConstraint=eastwest;strokeColor=inherit;" parent="mR_fFIOw4y9DoTcKAN-y-1" vertex="1">
          <mxGeometry y="50" width="160" height="8" as="geometry" />
        </mxCell>
        <mxCell id="mR_fFIOw4y9DoTcKAN-y-21" value="" style="endArrow=none;html=1;edgeStyle=orthogonalEdgeStyle;rounded=0;exitX=0.187;exitY=0.85;exitDx=0;exitDy=0;exitPerimeter=0;entryX=0.5;entryY=0;entryDx=0;entryDy=0;" parent="1" source="mR_fFIOw4y9DoTcKAN-y-3" edge="1">
          <mxGeometry relative="1" as="geometry">
            <mxPoint x="410.8799999999999" y="-235.08999999999992" as="sourcePoint" />
            <mxPoint x="250" y="-130" as="targetPoint" />
            <Array as="points">
              <mxPoint x="411" y="-263" />
              <mxPoint x="411" y="-200" />
              <mxPoint x="250" y="-200" />
            </Array>
          </mxGeometry>
        </mxCell>
        <mxCell id="mR_fFIOw4y9DoTcKAN-y-22" value="parent" style="edgeLabel;resizable=0;html=1;align=left;verticalAlign=bottom;" parent="mR_fFIOw4y9DoTcKAN-y-21" connectable="0" vertex="1">
          <mxGeometry x="-1" relative="1" as="geometry">
            <mxPoint x="-41" y="22" as="offset" />
          </mxGeometry>
        </mxCell>
        <mxCell id="mR_fFIOw4y9DoTcKAN-y-23" value="child" style="edgeLabel;resizable=0;html=1;align=right;verticalAlign=bottom;" parent="mR_fFIOw4y9DoTcKAN-y-21" connectable="0" vertex="1">
          <mxGeometry x="1" relative="1" as="geometry">
            <mxPoint as="offset" />
          </mxGeometry>
        </mxCell>
        <mxCell id="mR_fFIOw4y9DoTcKAN-y-24" value="" style="endArrow=none;html=1;edgeStyle=orthogonalEdgeStyle;rounded=0;exitX=0.5;exitY=1;exitDx=0;exitDy=0;entryX=0.5;entryY=0;entryDx=0;entryDy=0;" parent="1" source="mR_fFIOw4y9DoTcKAN-y-1" edge="1">
          <mxGeometry relative="1" as="geometry">
            <mxPoint x="460.1600000000001" y="-236.46800000000007" as="sourcePoint" />
            <mxPoint x="460" y="-130" as="targetPoint" />
          </mxGeometry>
        </mxCell>
        <mxCell id="mR_fFIOw4y9DoTcKAN-y-25" value="parent" style="edgeLabel;resizable=0;html=1;align=left;verticalAlign=bottom;" parent="mR_fFIOw4y9DoTcKAN-y-24" connectable="0" vertex="1">
          <mxGeometry x="-1" relative="1" as="geometry">
            <mxPoint x="-39" y="26" as="offset" />
          </mxGeometry>
        </mxCell>
        <mxCell id="mR_fFIOw4y9DoTcKAN-y-26" value="child" style="edgeLabel;resizable=0;html=1;align=right;verticalAlign=bottom;" parent="mR_fFIOw4y9DoTcKAN-y-24" connectable="0" vertex="1">
          <mxGeometry x="1" relative="1" as="geometry" />
        </mxCell>
        <mxCell id="mR_fFIOw4y9DoTcKAN-y-34" value="" style="endArrow=none;html=1;edgeStyle=orthogonalEdgeStyle;rounded=0;exitX=0.787;exitY=0.93;exitDx=0;exitDy=0;entryX=0.5;entryY=0;entryDx=0;entryDy=0;exitPerimeter=0;" parent="1" source="mR_fFIOw4y9DoTcKAN-y-3" edge="1">
          <mxGeometry relative="1" as="geometry">
            <mxPoint x="506.0799999999999" y="-235.79199999999992" as="sourcePoint" />
            <mxPoint x="670" y="-130" as="targetPoint" />
            <Array as="points">
              <mxPoint x="506" y="-200" />
              <mxPoint x="670" y="-200" />
            </Array>
          </mxGeometry>
        </mxCell>
        <mxCell id="mR_fFIOw4y9DoTcKAN-y-35" value="parent" style="edgeLabel;resizable=0;html=1;align=left;verticalAlign=bottom;" parent="mR_fFIOw4y9DoTcKAN-y-34" connectable="0" vertex="1">
          <mxGeometry x="-1" relative="1" as="geometry">
            <mxPoint y="24" as="offset" />
          </mxGeometry>
        </mxCell>
        <mxCell id="mR_fFIOw4y9DoTcKAN-y-36" value="child" style="edgeLabel;resizable=0;html=1;align=right;verticalAlign=bottom;" parent="mR_fFIOw4y9DoTcKAN-y-34" connectable="0" vertex="1">
          <mxGeometry x="1" relative="1" as="geometry" />
        </mxCell>
        <mxCell id="3ptJ2x1PHwVIQNCmf8u3-1" value="" style="endArrow=none;html=1;edgeStyle=orthogonalEdgeStyle;rounded=0;exitX=0.5;exitY=1;exitDx=0;exitDy=0;entryX=0.5;entryY=0;entryDx=0;entryDy=0;" parent="1" edge="1">
          <mxGeometry relative="1" as="geometry">
            <mxPoint x="670" y="-32" as="sourcePoint" />
            <mxPoint x="670" y="60" as="targetPoint" />
          </mxGeometry>
        </mxCell>
        <mxCell id="3ptJ2x1PHwVIQNCmf8u3-2" value="parent" style="edgeLabel;resizable=0;html=1;align=left;verticalAlign=bottom;" parent="3ptJ2x1PHwVIQNCmf8u3-1" connectable="0" vertex="1">
          <mxGeometry x="-1" relative="1" as="geometry">
            <mxPoint y="22" as="offset" />
          </mxGeometry>
        </mxCell>
        <mxCell id="3ptJ2x1PHwVIQNCmf8u3-3" value="child" style="edgeLabel;resizable=0;html=1;align=right;verticalAlign=bottom;" parent="3ptJ2x1PHwVIQNCmf8u3-1" connectable="0" vertex="1">
          <mxGeometry x="1" relative="1" as="geometry" />
        </mxCell>
        <mxCell id="3ptJ2x1PHwVIQNCmf8u3-4" value="Drawer&lt;div&gt;&lt;br&gt;&lt;/div&gt;" style="swimlane;fontStyle=1;align=center;verticalAlign=top;childLayout=stackLayout;horizontal=1;startSize=26;horizontalStack=0;resizeParent=1;resizeParentMax=0;resizeLast=0;collapsible=1;marginBottom=0;whiteSpace=wrap;html=1;" parent="1" vertex="1">
          <mxGeometry x="70" y="-340" width="160" height="100" as="geometry" />
        </mxCell>
        <mxCell id="3ptJ2x1PHwVIQNCmf8u3-6" value="" style="line;strokeWidth=1;fillColor=none;align=left;verticalAlign=middle;spacingTop=-1;spacingLeft=3;spacingRight=3;rotatable=0;labelPosition=right;points=[];portConstraint=eastwest;strokeColor=inherit;" parent="3ptJ2x1PHwVIQNCmf8u3-4" vertex="1">
          <mxGeometry y="26" width="160" height="8" as="geometry" />
        </mxCell>
        <mxCell id="3ptJ2x1PHwVIQNCmf8u3-7" value="+ draw(Dot): void&lt;div&gt;+ draw(Line): void&lt;/div&gt;&lt;div&gt;+ draw(Rectangle): void&lt;/div&gt;&lt;div&gt;+ draw(Square): void&lt;/div&gt;" style="text;strokeColor=none;fillColor=none;align=left;verticalAlign=top;spacingLeft=4;spacingRight=4;overflow=hidden;rotatable=0;points=[[0,0.5],[1,0.5]];portConstraint=eastwest;whiteSpace=wrap;html=1;" parent="3ptJ2x1PHwVIQNCmf8u3-4" vertex="1">
          <mxGeometry y="34" width="160" height="66" as="geometry" />
        </mxCell>
        <mxCell id="3ptJ2x1PHwVIQNCmf8u3-8" value="OntoRobot" style="swimlane;fontStyle=1;align=center;verticalAlign=top;childLayout=stackLayout;horizontal=1;startSize=26;horizontalStack=0;resizeParent=1;resizeParentMax=0;resizeLast=0;collapsible=1;marginBottom=0;whiteSpace=wrap;html=1;" parent="1" vertex="1">
          <mxGeometry x="620" y="-470" width="160" height="60" as="geometry" />
        </mxCell>
        <mxCell id="3ptJ2x1PHwVIQNCmf8u3-10" value="" style="line;strokeWidth=1;fillColor=none;align=left;verticalAlign=middle;spacingTop=-1;spacingLeft=3;spacingRight=3;rotatable=0;labelPosition=right;points=[];portConstraint=eastwest;strokeColor=inherit;" parent="3ptJ2x1PHwVIQNCmf8u3-8" vertex="1">
          <mxGeometry y="26" width="160" height="8" as="geometry" />
        </mxCell>
        <mxCell id="3ptJ2x1PHwVIQNCmf8u3-11" value="+ turnLeft(): void" style="text;strokeColor=none;fillColor=none;align=left;verticalAlign=top;spacingLeft=4;spacingRight=4;overflow=hidden;rotatable=0;points=[[0,0.5],[1,0.5]];portConstraint=eastwest;whiteSpace=wrap;html=1;" parent="3ptJ2x1PHwVIQNCmf8u3-8" vertex="1">
          <mxGeometry y="34" width="160" height="26" as="geometry" />
        </mxCell>
        <mxCell id="3ptJ2x1PHwVIQNCmf8u3-12" value="1" style="endArrow=open;html=1;endSize=12;startArrow=diamondThin;startSize=14;startFill=0;edgeStyle=orthogonalEdgeStyle;align=left;verticalAlign=bottom;rounded=0;exitX=0.483;exitY=1.105;exitDx=0;exitDy=0;exitPerimeter=0;entryX=0.5;entryY=0;entryDx=0;entryDy=0;" parent="1" source="3ptJ2x1PHwVIQNCmf8u3-11" target="mR_fFIOw4y9DoTcKAN-y-1" edge="1">
          <mxGeometry x="-0.8936" y="13" relative="1" as="geometry">
            <mxPoint x="710" y="-320" as="sourcePoint" />
            <mxPoint x="830" y="-260" as="targetPoint" />
            <Array as="points">
              <mxPoint x="697" y="-360" />
              <mxPoint x="460" y="-360" />
            </Array>
            <mxPoint as="offset" />
          </mxGeometry>
        </mxCell>
        <mxCell id="3ptJ2x1PHwVIQNCmf8u3-13" value="UrRobot" style="swimlane;fontStyle=1;align=center;verticalAlign=top;childLayout=stackLayout;horizontal=1;startSize=26;horizontalStack=0;resizeParent=1;resizeParentMax=0;resizeLast=0;collapsible=1;marginBottom=0;whiteSpace=wrap;html=1;" parent="1" vertex="1">
          <mxGeometry x="300" y="-530" width="160" height="86" as="geometry" />
        </mxCell>
        <mxCell id="3ptJ2x1PHwVIQNCmf8u3-14" value="............" style="text;strokeColor=none;fillColor=none;align=left;verticalAlign=top;spacingLeft=4;spacingRight=4;overflow=hidden;rotatable=0;points=[[0,0.5],[1,0.5]];portConstraint=eastwest;whiteSpace=wrap;html=1;" parent="3ptJ2x1PHwVIQNCmf8u3-13" vertex="1">
          <mxGeometry y="26" width="160" height="26" as="geometry" />
        </mxCell>
        <mxCell id="3ptJ2x1PHwVIQNCmf8u3-15" value="" style="line;strokeWidth=1;fillColor=none;align=left;verticalAlign=middle;spacingTop=-1;spacingLeft=3;spacingRight=3;rotatable=0;labelPosition=right;points=[];portConstraint=eastwest;strokeColor=inherit;" parent="3ptJ2x1PHwVIQNCmf8u3-13" vertex="1">
          <mxGeometry y="52" width="160" height="8" as="geometry" />
        </mxCell>
        <mxCell id="3ptJ2x1PHwVIQNCmf8u3-16" value="............" style="text;strokeColor=none;fillColor=none;align=left;verticalAlign=top;spacingLeft=4;spacingRight=4;overflow=hidden;rotatable=0;points=[[0,0.5],[1,0.5]];portConstraint=eastwest;whiteSpace=wrap;html=1;" parent="3ptJ2x1PHwVIQNCmf8u3-13" vertex="1">
          <mxGeometry y="60" width="160" height="26" as="geometry" />
        </mxCell>
        <mxCell id="3ptJ2x1PHwVIQNCmf8u3-17" value="" style="endArrow=none;html=1;edgeStyle=orthogonalEdgeStyle;rounded=0;exitX=0.999;exitY=1.114;exitDx=0;exitDy=0;exitPerimeter=0;entryX=0.007;entryY=1;entryDx=0;entryDy=0;entryPerimeter=0;" parent="1" source="3ptJ2x1PHwVIQNCmf8u3-14" target="3ptJ2x1PHwVIQNCmf8u3-10" edge="1">
          <mxGeometry relative="1" as="geometry">
            <mxPoint x="360" y="-330" as="sourcePoint" />
            <mxPoint x="610" y="-430" as="targetPoint" />
            <Array as="points">
              <mxPoint x="540" y="-475" />
              <mxPoint x="540" y="-436" />
            </Array>
          </mxGeometry>
        </mxCell>
        <mxCell id="3ptJ2x1PHwVIQNCmf8u3-18" value="parent" style="edgeLabel;resizable=0;html=1;align=left;verticalAlign=bottom;" parent="3ptJ2x1PHwVIQNCmf8u3-17" connectable="0" vertex="1">
          <mxGeometry x="-1" relative="1" as="geometry" />
        </mxCell>
        <mxCell id="3ptJ2x1PHwVIQNCmf8u3-19" value="child" style="edgeLabel;resizable=0;html=1;align=right;verticalAlign=bottom;" parent="3ptJ2x1PHwVIQNCmf8u3-17" connectable="0" vertex="1">
          <mxGeometry x="1" relative="1" as="geometry">
            <mxPoint x="-1" y="16" as="offset" />
          </mxGeometry>
        </mxCell>
        <mxCell id="qAcmeEOm7j4MFQ07mKQ6-2" value="Dot" style="swimlane;fontStyle=1;align=center;verticalAlign=top;childLayout=stackLayout;horizontal=1;startSize=26;horizontalStack=0;resizeParent=1;resizeParentMax=0;resizeLast=0;collapsible=1;marginBottom=0;whiteSpace=wrap;html=1;" vertex="1" parent="1">
          <mxGeometry x="180" y="-130" width="160" height="90" as="geometry" />
        </mxCell>
        <mxCell id="qAcmeEOm7j4MFQ07mKQ6-3" value="- x: int&lt;div&gt;- y: int&lt;/div&gt;" style="text;strokeColor=none;fillColor=none;align=left;verticalAlign=top;spacingLeft=4;spacingRight=4;overflow=hidden;rotatable=0;points=[[0,0.5],[1,0.5]];portConstraint=eastwest;whiteSpace=wrap;html=1;" vertex="1" parent="qAcmeEOm7j4MFQ07mKQ6-2">
          <mxGeometry y="26" width="160" height="34" as="geometry" />
        </mxCell>
        <mxCell id="qAcmeEOm7j4MFQ07mKQ6-4" value="" style="line;strokeWidth=1;fillColor=none;align=left;verticalAlign=middle;spacingTop=-1;spacingLeft=3;spacingRight=3;rotatable=0;labelPosition=right;points=[];portConstraint=eastwest;strokeColor=inherit;" vertex="1" parent="qAcmeEOm7j4MFQ07mKQ6-2">
          <mxGeometry y="60" width="160" height="8" as="geometry" />
        </mxCell>
        <mxCell id="qAcmeEOm7j4MFQ07mKQ6-5" value="+ Dot(int, int): Dot" style="text;strokeColor=none;fillColor=none;align=left;verticalAlign=top;spacingLeft=4;spacingRight=4;overflow=hidden;rotatable=0;points=[[0,0.5],[1,0.5]];portConstraint=eastwest;whiteSpace=wrap;html=1;" vertex="1" parent="qAcmeEOm7j4MFQ07mKQ6-2">
          <mxGeometry y="68" width="160" height="22" as="geometry" />
        </mxCell>
        <mxCell id="qAcmeEOm7j4MFQ07mKQ6-6" value="Line" style="swimlane;fontStyle=1;align=center;verticalAlign=top;childLayout=stackLayout;horizontal=1;startSize=26;horizontalStack=0;resizeParent=1;resizeParentMax=0;resizeLast=0;collapsible=1;marginBottom=0;whiteSpace=wrap;html=1;" vertex="1" parent="1">
          <mxGeometry x="380" y="-130" width="160" height="94" as="geometry" />
        </mxCell>
        <mxCell id="qAcmeEOm7j4MFQ07mKQ6-7" value="- dot1: Dot&lt;div&gt;- dot2: Dot&lt;/div&gt;" style="text;strokeColor=none;fillColor=none;align=left;verticalAlign=top;spacingLeft=4;spacingRight=4;overflow=hidden;rotatable=0;points=[[0,0.5],[1,0.5]];portConstraint=eastwest;whiteSpace=wrap;html=1;" vertex="1" parent="qAcmeEOm7j4MFQ07mKQ6-6">
          <mxGeometry y="26" width="160" height="34" as="geometry" />
        </mxCell>
        <mxCell id="qAcmeEOm7j4MFQ07mKQ6-8" value="" style="line;strokeWidth=1;fillColor=none;align=left;verticalAlign=middle;spacingTop=-1;spacingLeft=3;spacingRight=3;rotatable=0;labelPosition=right;points=[];portConstraint=eastwest;strokeColor=inherit;" vertex="1" parent="qAcmeEOm7j4MFQ07mKQ6-6">
          <mxGeometry y="60" width="160" height="8" as="geometry" />
        </mxCell>
        <mxCell id="qAcmeEOm7j4MFQ07mKQ6-9" value="+ Line(Dot, Dot): Line" style="text;strokeColor=none;fillColor=none;align=left;verticalAlign=top;spacingLeft=4;spacingRight=4;overflow=hidden;rotatable=0;points=[[0,0.5],[1,0.5]];portConstraint=eastwest;whiteSpace=wrap;html=1;" vertex="1" parent="qAcmeEOm7j4MFQ07mKQ6-6">
          <mxGeometry y="68" width="160" height="26" as="geometry" />
        </mxCell>
        <mxCell id="qAcmeEOm7j4MFQ07mKQ6-10" value="Rectangle" style="swimlane;fontStyle=1;align=center;verticalAlign=top;childLayout=stackLayout;horizontal=1;startSize=26;horizontalStack=0;resizeParent=1;resizeParentMax=0;resizeLast=0;collapsible=1;marginBottom=0;whiteSpace=wrap;html=1;" vertex="1" parent="1">
          <mxGeometry x="570" y="-130" width="200" height="94" as="geometry" />
        </mxCell>
        <mxCell id="qAcmeEOm7j4MFQ07mKQ6-11" value="# line1: Line&lt;div&gt;# line2: Line&lt;br&gt;&lt;div&gt;&lt;br&gt;&lt;/div&gt;&lt;/div&gt;" style="text;strokeColor=none;fillColor=none;align=left;verticalAlign=top;spacingLeft=4;spacingRight=4;overflow=hidden;rotatable=0;points=[[0,0.5],[1,0.5]];portConstraint=eastwest;whiteSpace=wrap;html=1;" vertex="1" parent="qAcmeEOm7j4MFQ07mKQ6-10">
          <mxGeometry y="26" width="200" height="34" as="geometry" />
        </mxCell>
        <mxCell id="qAcmeEOm7j4MFQ07mKQ6-12" value="" style="line;strokeWidth=1;fillColor=none;align=left;verticalAlign=middle;spacingTop=-1;spacingLeft=3;spacingRight=3;rotatable=0;labelPosition=right;points=[];portConstraint=eastwest;strokeColor=inherit;" vertex="1" parent="qAcmeEOm7j4MFQ07mKQ6-10">
          <mxGeometry y="60" width="200" height="8" as="geometry" />
        </mxCell>
        <mxCell id="qAcmeEOm7j4MFQ07mKQ6-13" value="+ Rectangle(Line, Line): Rectangle&amp;nbsp;" style="text;strokeColor=none;fillColor=none;align=left;verticalAlign=top;spacingLeft=4;spacingRight=4;overflow=hidden;rotatable=0;points=[[0,0.5],[1,0.5]];portConstraint=eastwest;whiteSpace=wrap;html=1;" vertex="1" parent="qAcmeEOm7j4MFQ07mKQ6-10">
          <mxGeometry y="68" width="200" height="26" as="geometry" />
        </mxCell>
        <mxCell id="qAcmeEOm7j4MFQ07mKQ6-14" value="Square" style="swimlane;fontStyle=1;align=center;verticalAlign=top;childLayout=stackLayout;horizontal=1;startSize=26;horizontalStack=0;resizeParent=1;resizeParentMax=0;resizeLast=0;collapsible=1;marginBottom=0;whiteSpace=wrap;html=1;" vertex="1" parent="1">
          <mxGeometry x="590" y="60" width="160" height="60" as="geometry" />
        </mxCell>
        <mxCell id="qAcmeEOm7j4MFQ07mKQ6-16" value="" style="line;strokeWidth=1;fillColor=none;align=left;verticalAlign=middle;spacingTop=-1;spacingLeft=3;spacingRight=3;rotatable=0;labelPosition=right;points=[];portConstraint=eastwest;strokeColor=inherit;" vertex="1" parent="qAcmeEOm7j4MFQ07mKQ6-14">
          <mxGeometry y="26" width="160" height="8" as="geometry" />
        </mxCell>
        <mxCell id="qAcmeEOm7j4MFQ07mKQ6-17" value="+ Square(Line): Square" style="text;strokeColor=none;fillColor=none;align=left;verticalAlign=top;spacingLeft=4;spacingRight=4;overflow=hidden;rotatable=0;points=[[0,0.5],[1,0.5]];portConstraint=eastwest;whiteSpace=wrap;html=1;" vertex="1" parent="qAcmeEOm7j4MFQ07mKQ6-14">
          <mxGeometry y="34" width="160" height="26" as="geometry" />
        </mxCell>
      </root>
    </mxGraphModel>
  </diagram>
</mxfile>
